<?xml version="1.0" encoding="UTF-8"?>
<svg version="1.1" viewBox="0 0 1500 503" xmlns="http://www.w3.org/2000/svg" xmlnsXlink="http://www.w3.org/1999/xlink">
<g transform="translate(-.90909 .68302)">
<svg width="1500" height="503" data-background-color="#c8c8c8" viewBox="0 0 396 133" xmlns="http://www.w3.org/2000/svg" xmlnsXlink="http://www.w3.org/1999/xlink">
<g transform="translate(.24 -.1806)">
<svg width="395.52" height="133.36" viewBox="0 0 395.52 133.36120039240404">
<svg width="395.52" height="133.36" viewBox="0 0 669.4628046893434 225.72907375464297">
<g transform="translate(0 61.807)">
<svg width="395.52" height="102.11" viewBox="0 0 395.52 102.11485058773546">
<svg width="395.52" height="102.11" viewBox="0 0 395.52 102.11485058773546">
<svg width="395.52" height="102.11" viewBox="0 0 395.52 102.11485058773546">
<g>
<svg width="395.52" height="102.11" data-palette-color="#000000" viewBox="1.5 -36.48 175.31 45.58">
<g class="wordmark-text-0" data-fill-palette-color="primary">
<path d="m17.82-35.83v23.45q0 3-0.73 5.38-0.74 2.37-2.18 4.01-1.43 1.64-3.53 2.51-2.1 0.88-4.83 0.88-2.42 0-5.05-0.7 0.05-0.73 0.13-1.44 0.07-0.71 0.15-1.41 0.05-0.43 0.31-0.69t0.79-0.26q0.45 0 1.2 0.22 0.75 0.23 2 0.23 1.65 0 2.93-0.5 1.29-0.5 2.18-1.55t1.35-2.69 0.46-3.89v-23.55h4.82zm7.43 10.5h4.45v16.15q0 2.88 1.32 4.45 1.33 1.58 4 1.58 1.95 0 3.68-0.93 1.72-0.92 3.17-2.57v-18.68h4.45v25.33h-2.65q-0.95 0-1.2-0.93l-0.35-2.72q-1.65 1.82-3.7 2.94-2.05 1.11-4.7 1.11-2.07 0-3.66-0.69t-2.66-1.94q-1.08-1.25-1.61-3.02-0.54-1.78-0.54-3.93v-16.15zm43.9 2.55-1 1.63q-0.31 0.55-0.93 0.55-0.38 0-0.85-0.28-0.47-0.27-1.16-0.61t-1.64-0.62q-0.95-0.29-2.25-0.29-1.12 0-2.02 0.29-0.9 0.28-1.54 0.78t-0.98 1.17q-0.33 0.66-0.33 1.43 0 0.98 0.56 1.63t1.49 1.12q0.92 0.48 2.1 0.84 1.17 0.36 2.41 0.78 1.24 0.41 2.41 0.91t2.1 1.25 1.49 1.84q0.56 1.08 0.56 2.61 0 1.75-0.62 3.24-0.63 1.48-1.86 2.57-1.22 1.09-3 1.71-1.77 0.63-4.09 0.63-2.65 0-4.8-0.86-2.15-0.87-3.65-2.22l1.05-1.7q0.2-0.32 0.47-0.5 0.28-0.17 0.73-0.17t0.95 0.35 1.21 0.77q0.71 0.43 1.72 0.78 1.02 0.35 2.54 0.35 1.3 0 2.28-0.34 0.97-0.34 1.62-0.91 0.65-0.58 0.96-1.33 0.32-0.75 0.32-1.6 0-1.05-0.57-1.73-0.56-0.69-1.48-1.18-0.93-0.49-2.12-0.85-1.18-0.36-2.42-0.76t-2.43-0.91q-1.18-0.52-2.11-1.29-0.92-0.78-1.49-1.91-0.56-1.14-0.56-2.77 0-1.45 0.6-2.78 0.6-1.34 1.75-2.35 1.15-1.02 2.83-1.62 1.67-0.6 3.82-0.6 2.5 0 4.49 0.79t3.44 2.16zm13.87 23.18q-3 0-4.61-1.68-1.62-1.67-1.62-4.82v-15.5h-3.05q-0.4 0-0.67-0.24-0.28-0.24-0.28-0.74v-1.77l4.15-0.53 1.03-7.82q0.05-0.38 0.32-0.61 0.28-0.24 0.7-0.24h2.25v8.72h7.25v3.23h-7.25v15.2q0 1.6 0.78 2.37 0.77 0.78 2 0.78 0.7 0 1.21-0.19t0.89-0.41q0.37-0.23 0.64-0.41 0.26-0.19 0.46-0.19 0.35 0 0.62 0.42l1.3 2.13q-1.15 1.07-2.77 1.69-1.63 0.61-3.35 0.61z" data-fill-palette-color="primary"/>
<path d="m102.94-25.33h4.45v27.21q0 1.52-0.4 2.83-0.4 1.32-1.26 2.29-0.87 0.98-2.23 1.54t-3.26 0.56q-0.83 0-1.5-0.13-0.68-0.12-1.35-0.37l0.2-2.4q0.05-0.32 0.22-0.41 0.18-0.09 0.55-0.09 0.2 0 0.43 0.01 0.22 0.02 0.55 0.02 1.95 0 2.77-0.92 0.83-0.91 0.83-2.93v-27.21zm5.45-7.94q0 0.64-0.27 1.21-0.26 0.56-0.69 1-0.44 0.43-1.02 0.68-0.57 0.25-1.22 0.25t-1.21-0.25q-0.57-0.25-1-0.68-0.44-0.44-0.69-1-0.25-0.57-0.25-1.21 0-0.66 0.25-1.24 0.25-0.59 0.69-1.03 0.43-0.44 1-0.69 0.56-0.25 1.21-0.25t1.22 0.25q0.58 0.25 1.02 0.69 0.43 0.44 0.69 1.03 0.27 0.58 0.27 1.24zm17 7.54q2.77 0 5.01 0.93 2.24 0.92 3.8 2.62t2.4 4.12q0.84 2.41 0.84 5.38 0 3-0.84 5.4t-2.4 4.1-3.8 2.62q-2.24 0.91-5.01 0.91-2.78 0-5.02-0.91-2.23-0.92-3.81-2.62-1.57-1.7-2.42-4.1t-0.85-5.4q0-2.97 0.85-5.38 0.85-2.42 2.42-4.12 1.58-1.7 3.81-2.62 2.24-0.93 5.02-0.93zm0 22.6q3.75 0 5.59-2.51 1.86-2.51 1.86-7.01 0-4.53-1.86-7.05-1.84-2.53-5.59-2.53-1.91 0-3.3 0.65-1.4 0.65-2.34 1.88-0.94 1.22-1.4 3.01t-0.46 4.04 0.46 4.02q0.46 1.78 1.4 2.99 0.94 1.22 2.34 1.86 1.39 0.65 3.3 0.65zm18.04-22.2h4.45v25.33h-4.45v-25.33zm5.45-7.94q0 0.64-0.26 1.21-0.26 0.56-0.7 1-0.44 0.43-1.01 0.68-0.58 0.25-1.23 0.25t-1.21-0.25-1-0.68q-0.44-0.44-0.69-1-0.25-0.57-0.25-1.21 0-0.66 0.25-1.24 0.25-0.59 0.69-1.03t1-0.69 1.21-0.25 1.23 0.25q0.57 0.25 1.01 0.69t0.7 1.03q0.26 0.58 0.26 1.24zm11.3 33.27h-4.45v-25.33h2.65q0.95 0 1.2 0.93l0.35 2.75q1.65-1.83 3.69-2.95 2.04-1.13 4.71-1.13 2.08 0 3.66 0.69 1.59 0.69 2.65 1.95 1.07 1.26 1.62 3.04 0.55 1.77 0.55 3.92v16.13h-4.45v-16.13q0-2.87-1.32-4.46-1.31-1.59-4.01-1.59-1.97 0-3.69 0.95-1.71 0.95-3.16 2.58v18.65z" data-fill-palette-color="primary"/>
</g>
</svg>
</g>
</svg>
</svg>
</svg>
</g>
<g transform="translate(443.73)">
<svg width="225.73" height="225.73" viewBox="0 0 225.72907375464297 225.72907375464297">
<svg/>
<svg width="225.73" height="225.73" viewBox="0 0 225.72907375464297 225.72907375464297">
<path d="m0 112.86c0-62.333 50.531-112.86 112.86-112.86 62.333 0 112.86 50.531 112.86 112.86 0 62.333-50.531 112.86-112.86 112.86-62.333 0-112.86-50.531-112.86-112.86zm112.86 103.66c57.247 0 103.66-46.408 103.66-103.66 0-57.247-46.408-103.66-103.66-103.66s-103.66 46.408-103.66 103.66c0 57.247 46.408 103.66 103.66 103.66z" stroke="transparent" data-fill-palette-color="accent"/>
<g transform="translate(49.021 56.158)">
<svg width="127.69" height="113.41" viewBox="0 0 127.6877590897255 113.4124147224028">
<svg class="icon-cg-0" width="127.69" height="113.41" enable-background="new 0 0 100 100" data-fill-palette-color="accent" version="1.1" viewBox="4.602 9.677 90.79699999999998 80.64600000000002" xml:space="preserve" xmlns="http://www.w3.org/2000/svg" xmlnsXlink="http://www.w3.org/1999/xlink"><g data-fill-palette-color="accent"><path d="m95.35 27.217c0-2.192-1.783-3.976-3.977-3.976h-26.928v-7.692c0-3.238-2.635-5.872-5.873-5.872h-17.144c-3.238 0-5.873 2.634-5.873 5.872v7.692h-26.926c-2.193 0-3.977 1.783-3.977 3.974l-0.05 23.669c0 0.384 0.219 0.734 0.564 0.902 1.239 0.601 2.508 1.167 3.799 1.707v32.854c0 2.192 1.783 3.976 3.975 3.976h74.121c2.191 0 3.975-1.783 3.975-3.976v-33.33c1.306-0.589 2.585-1.207 3.829-1.863 0.329-0.173 0.534-0.515 0.534-0.887l-0.049-23.05zm-57.795-11.668c0-2.135 1.737-3.872 3.873-3.872h17.145c2.1 0 3.873 1.773 3.873 3.872v7.692h-24.891v-7.692zm51.48 70.799c0 1.07-0.904 1.976-1.975 1.976h-74.121c-1.07 0-1.975-0.905-1.975-1.976v-32.075c9.138 3.542 19.447 5.643 30.779 6.206 0.017 1e-3 0.033 2e-3 0.051 2e-3 0.073 0 0.14-0.025 0.209-0.041v3.765c0 1.461 1.188 2.649 2.648 2.649h10.695c1.461 0 2.648-1.188 2.648-2.649v-3.748c11.601-0.614 21.996-2.846 31.039-6.604v32.495zm-45.031-22.143v-7.335c0-0.359 0.291-0.651 0.648-0.651h10.695c0.352 0 0.648 0.298 0.648 0.651v7.335c0 0.352-0.297 0.649-0.648 0.649h-10.695c-0.357 0-0.648-0.291-0.648-0.649zm13.992-5.752v-1.583c0-1.462-1.188-2.651-2.648-2.651h-10.696c-1.46 0-2.648 1.189-2.648 2.651v1.653c-0.055-0.012-0.104-0.038-0.16-0.041-13.273-0.66-25.125-3.427-35.24-8.226l0.049-23.04c0-1.09 0.887-1.976 1.977-1.976h82.744c1.09 0 1.977 0.886 1.977 1.978l0.047 22.445c-9.906 5.107-21.813 8.059-35.402 8.79z" data-fill-palette-color="accent"/></g></svg>
</svg>
</g>
</svg>
</svg>
</g>
</svg>
</svg>
<rect width="395.52" height="133.36" fill="none" visibility="hidden"/>
</g>
</svg>
</g>
</svg>
