<svg xmlns="http://www.w3.org/2000/svg" version="1.1" xmlns:xlink="http://www.w3.org/1999/xlink" xmlns:svgjs="http://svgjs.dev/svgjs" width="1500" height="503" viewBox="0 0 1500 503"><g transform="matrix(1,0,0,1,-0.9090909090909918,0.6830217946587709)"><svg viewBox="0 0 396 133" data-background-color="#c8c8c8" preserveAspectRatio="xMidYMid meet" height="503" width="1500" xmlns="http://www.w3.org/2000/svg" xmlns:xlink="http://www.w3.org/1999/xlink"><g id="tight-bounds" transform="matrix(1,0,0,1,0.2400000000000091,-0.18060019620202183)"><svg viewBox="0 0 395.52 133.36120039240404" height="133.36120039240404" width="395.52"><g><svg viewBox="0 0 669.4628046893434 225.72907375464297" height="133.36120039240404" width="395.52"><g transform="matrix(1,0,0,1,0,61.807111583453754)"><svg viewBox="0 0 395.52 102.11485058773546" height="102.11485058773546" width="395.52"><g id="textblocktransform"><svg viewBox="0 0 395.52 102.11485058773546" height="102.11485058773546" width="395.52" id="textblock"><g><svg viewBox="0 0 395.52 102.11485058773546" height="102.11485058773546" width="395.52"><g transform="matrix(1,0,0,1,0,0)"><svg width="395.52" viewBox="1.5 -36.48 175.31 45.58" height="102.11485058773546" data-palette-color="#000000"><g class="wordmark-text-0" data-fill-palette-color="primary" id="text-0"><path d="M17.82-35.83L17.82-12.38Q17.82-9.38 17.09-7 16.35-4.63 14.91-2.99 13.48-1.35 11.38-0.48 9.28 0.4 6.55 0.4L6.55 0.4Q4.13 0.4 1.5-0.3L1.5-0.3Q1.55-1.03 1.63-1.74 1.7-2.45 1.78-3.15L1.78-3.15Q1.83-3.58 2.09-3.84 2.35-4.1 2.88-4.1L2.88-4.1Q3.33-4.1 4.08-3.88 4.83-3.65 6.08-3.65L6.08-3.65Q7.73-3.65 9.01-4.15 10.3-4.65 11.19-5.7 12.08-6.75 12.54-8.39 13-10.03 13-12.28L13-12.28 13-35.83 17.82-35.83ZM25.25-25.33L29.7-25.33 29.7-9.18Q29.7-6.3 31.02-4.73 32.35-3.15 35.02-3.15L35.02-3.15Q36.97-3.15 38.7-4.08 40.42-5 41.87-6.65L41.87-6.65 41.87-25.33 46.32-25.33 46.32 0 43.67 0Q42.72 0 42.47-0.93L42.47-0.93 42.12-3.65Q40.47-1.83 38.42-0.71 36.37 0.4 33.72 0.4L33.72 0.4Q31.65 0.4 30.06-0.29 28.47-0.98 27.4-2.23 26.32-3.48 25.79-5.25 25.25-7.03 25.25-9.18L25.25-9.18 25.25-25.33ZM69.15-22.78L68.15-21.15Q67.84-20.6 67.22-20.6L67.22-20.6Q66.84-20.6 66.37-20.88 65.9-21.15 65.21-21.49 64.52-21.83 63.57-22.11 62.62-22.4 61.32-22.4L61.32-22.4Q60.2-22.4 59.3-22.11 58.4-21.83 57.76-21.33 57.12-20.83 56.78-20.16 56.45-19.5 56.45-18.73L56.45-18.73Q56.45-17.75 57.01-17.1 57.57-16.45 58.5-15.98 59.42-15.5 60.6-15.14 61.77-14.78 63.01-14.36 64.25-13.95 65.42-13.45 66.59-12.95 67.52-12.2 68.45-11.45 69.01-10.36 69.57-9.28 69.57-7.75L69.57-7.75Q69.57-6 68.95-4.51 68.32-3.03 67.09-1.94 65.87-0.85 64.09-0.23 62.32 0.4 60 0.4L60 0.4Q57.35 0.4 55.2-0.46 53.05-1.33 51.55-2.68L51.55-2.68 52.6-4.38Q52.8-4.7 53.07-4.88 53.35-5.05 53.8-5.05L53.8-5.05Q54.25-5.05 54.75-4.7 55.25-4.35 55.96-3.93 56.67-3.5 57.68-3.15 58.7-2.8 60.22-2.8L60.22-2.8Q61.52-2.8 62.5-3.14 63.47-3.48 64.12-4.05 64.77-4.63 65.08-5.38 65.4-6.13 65.4-6.98L65.4-6.98Q65.4-8.03 64.83-8.71 64.27-9.4 63.35-9.89 62.42-10.38 61.23-10.74 60.05-11.1 58.81-11.5 57.57-11.9 56.38-12.41 55.2-12.93 54.27-13.7 53.35-14.48 52.78-15.61 52.22-16.75 52.22-18.38L52.22-18.38Q52.22-19.83 52.82-21.16 53.42-22.5 54.57-23.51 55.72-24.53 57.4-25.13 59.07-25.73 61.22-25.73L61.22-25.73Q63.72-25.73 65.71-24.94 67.7-24.15 69.15-22.78L69.15-22.78ZM83.02 0.4L83.02 0.4Q80.02 0.4 78.41-1.28 76.79-2.95 76.79-6.1L76.79-6.1 76.79-21.6 73.74-21.6Q73.34-21.6 73.07-21.84 72.79-22.08 72.79-22.58L72.79-22.58 72.79-24.35 76.94-24.88 77.97-32.7Q78.02-33.08 78.29-33.31 78.57-33.55 78.99-33.55L78.99-33.55 81.24-33.55 81.24-24.83 88.49-24.83 88.49-21.6 81.24-21.6 81.24-6.4Q81.24-4.8 82.02-4.03 82.79-3.25 84.02-3.25L84.02-3.25Q84.72-3.25 85.23-3.44 85.74-3.63 86.12-3.85 86.49-4.08 86.76-4.26 87.02-4.45 87.22-4.45L87.22-4.45Q87.57-4.45 87.84-4.03L87.84-4.03 89.14-1.9Q87.99-0.83 86.37-0.21 84.74 0.4 83.02 0.4Z" fill="#000000" data-fill-palette-color="primary"></path><path d="M102.94-25.33L107.39-25.33 107.39 1.88Q107.39 3.4 106.99 4.71 106.59 6.03 105.73 7 104.86 7.98 103.5 8.54 102.14 9.1 100.24 9.1L100.24 9.1Q99.41 9.1 98.74 8.97 98.06 8.85 97.39 8.6L97.39 8.6 97.59 6.2Q97.64 5.88 97.81 5.79 97.99 5.7 98.36 5.7L98.36 5.7Q98.56 5.7 98.79 5.71 99.01 5.73 99.34 5.73L99.34 5.73Q101.29 5.73 102.11 4.81 102.94 3.9 102.94 1.88L102.94 1.88 102.94-25.33ZM108.39-33.27L108.39-33.27Q108.39-32.63 108.12-32.06 107.86-31.5 107.43-31.06 106.99-30.63 106.41-30.38 105.84-30.13 105.19-30.13L105.19-30.13Q104.54-30.13 103.98-30.38 103.41-30.63 102.98-31.06 102.54-31.5 102.29-32.06 102.04-32.63 102.04-33.27L102.04-33.27Q102.04-33.93 102.29-34.51 102.54-35.1 102.98-35.54 103.41-35.98 103.98-36.23 104.54-36.48 105.19-36.48L105.19-36.48Q105.84-36.48 106.41-36.23 106.99-35.98 107.43-35.54 107.86-35.1 108.12-34.51 108.39-33.93 108.39-33.27ZM125.39-25.73L125.39-25.73Q128.16-25.73 130.4-24.8 132.64-23.88 134.2-22.18 135.76-20.48 136.6-18.06 137.44-15.65 137.44-12.68L137.44-12.68Q137.44-9.68 136.6-7.28 135.76-4.88 134.2-3.18 132.64-1.48 130.4-0.56 128.16 0.35 125.39 0.35L125.39 0.35Q122.61 0.35 120.37-0.56 118.14-1.48 116.56-3.18 114.99-4.88 114.14-7.28 113.29-9.68 113.29-12.68L113.29-12.68Q113.29-15.65 114.14-18.06 114.99-20.48 116.56-22.18 118.14-23.88 120.37-24.8 122.61-25.73 125.39-25.73ZM125.39-3.13L125.39-3.13Q129.14-3.13 130.98-5.64 132.84-8.15 132.84-12.65L132.84-12.65Q132.84-17.18 130.98-19.7 129.14-22.23 125.39-22.23L125.39-22.23Q123.48-22.23 122.09-21.58 120.69-20.93 119.75-19.7 118.81-18.48 118.35-16.69 117.89-14.9 117.89-12.65L117.89-12.65Q117.89-10.4 118.35-8.63 118.81-6.85 119.75-5.64 120.69-4.42 122.09-3.78 123.48-3.13 125.39-3.13ZM143.43-25.33L147.88-25.33 147.88 0 143.43 0 143.43-25.33ZM148.88-33.27L148.88-33.27Q148.88-32.63 148.62-32.06 148.36-31.5 147.92-31.06 147.48-30.63 146.91-30.38 146.33-30.13 145.68-30.13L145.68-30.13Q145.03-30.13 144.47-30.38 143.91-30.63 143.47-31.06 143.03-31.5 142.78-32.06 142.53-32.63 142.53-33.27L142.53-33.27Q142.53-33.93 142.78-34.51 143.03-35.1 143.47-35.54 143.91-35.98 144.47-36.23 145.03-36.48 145.68-36.48L145.68-36.48Q146.33-36.48 146.91-36.23 147.48-35.98 147.92-35.54 148.36-35.1 148.62-34.51 148.88-33.93 148.88-33.27ZM160.18 0L155.73 0 155.73-25.33 158.38-25.33Q159.33-25.33 159.58-24.4L159.58-24.4 159.93-21.65Q161.58-23.48 163.62-24.6 165.66-25.73 168.33-25.73L168.33-25.73Q170.41-25.73 171.99-25.04 173.58-24.35 174.64-23.09 175.71-21.83 176.26-20.05 176.81-18.28 176.81-16.13L176.81-16.13 176.81 0 172.36 0 172.36-16.13Q172.36-19 171.04-20.59 169.73-22.18 167.03-22.18L167.03-22.18Q165.06-22.18 163.34-21.23 161.63-20.28 160.18-18.65L160.18-18.65 160.18 0Z" fill="#000000" data-fill-palette-color="primary"></path></g></svg></g></svg></g></svg></g></svg></g><g transform="matrix(1,0,0,1,443.7337309347005,0)"><svg viewBox="0 0 225.72907375464297 225.72907375464297" height="225.72907375464297" width="225.72907375464297"><g><svg></svg></g><g id="icon-0"><svg viewBox="0 0 225.72907375464297 225.72907375464297" height="225.72907375464297" width="225.72907375464297"><g><path d="M0 112.865c0-62.333 50.531-112.865 112.865-112.865 62.333 0 112.865 50.531 112.864 112.865 0 62.333-50.531 112.865-112.864 112.864-62.333 0-112.865-50.531-112.865-112.864zM112.865 216.52c57.247 0 103.656-46.408 103.655-103.655 0-57.247-46.408-103.656-103.655-103.656-57.247 0-103.656 46.408-103.656 103.656 0 57.247 46.408 103.656 103.656 103.655z" data-fill-palette-color="accent" fill="#000000" stroke="transparent"></path></g><g transform="matrix(1,0,0,1,49.02065733245873,56.158329516120084)"><svg viewBox="0 0 127.6877590897255 113.4124147224028" height="113.4124147224028" width="127.6877590897255"><g><svg xmlns="http://www.w3.org/2000/svg" xmlns:xlink="http://www.w3.org/1999/xlink" version="1.1" x="0" y="0" viewBox="4.602 9.677 90.79699999999998 80.64600000000002" enable-background="new 0 0 100 100" xml:space="preserve" height="113.4124147224028" width="127.6877590897255" class="icon-cg-0" data-fill-palette-color="accent" id="cg-0"><g fill="#000000" data-fill-palette-color="accent"><path d="M95.35 27.217c0-2.192-1.783-3.976-3.977-3.976H64.445v-7.692c0-3.238-2.635-5.872-5.873-5.872H41.428c-3.238 0-5.873 2.634-5.873 5.872v7.692H8.629c-2.193 0-3.977 1.783-3.977 3.974L4.602 50.884c0 0.384 0.219 0.734 0.564 0.902 1.239 0.601 2.508 1.167 3.799 1.707v32.854c0 2.192 1.783 3.976 3.975 3.976h74.121c2.191 0 3.975-1.783 3.975-3.976v-33.33c1.306-0.589 2.585-1.207 3.829-1.863 0.329-0.173 0.534-0.515 0.534-0.887L95.35 27.217zM37.555 15.549c0-2.135 1.737-3.872 3.873-3.872h17.145c2.1 0 3.873 1.773 3.873 3.872v7.692H37.555V15.549zM89.035 86.348c0 1.07-0.904 1.976-1.975 1.976H12.939c-1.07 0-1.975-0.905-1.975-1.976V54.273c9.138 3.542 19.447 5.643 30.779 6.206 0.017 0.001 0.033 0.002 0.051 0.002 0.073 0 0.14-0.025 0.209-0.041v3.765c0 1.461 1.188 2.649 2.648 2.649h10.695c1.461 0 2.648-1.188 2.648-2.649v-3.748c11.601-0.614 21.996-2.846 31.039-6.604V86.348zM44.004 64.205V56.87c0-0.359 0.291-0.651 0.648-0.651h10.695c0.352 0 0.648 0.298 0.648 0.651v7.335c0 0.352-0.297 0.649-0.648 0.649H44.652C44.295 64.854 44.004 64.563 44.004 64.205zM57.996 58.453V56.87c0-1.462-1.188-2.651-2.648-2.651H44.652c-1.46 0-2.648 1.189-2.648 2.651v1.653c-0.055-0.012-0.104-0.038-0.16-0.041-13.273-0.66-25.125-3.427-35.24-8.226l0.049-23.04c0-1.09 0.887-1.976 1.977-1.976h82.744c1.09 0 1.977 0.886 1.977 1.978l0.047 22.445C83.492 54.77 71.585 57.722 57.996 58.453z" fill="#000000" data-fill-palette-color="accent"></path></g></svg></g></svg></g></svg></g></svg></g></svg></g><defs></defs></svg><rect width="395.52" height="133.36120039240404" fill="none" stroke="none" visibility="hidden"></rect></g></svg></g></svg>